<svg xmlns="http://www.w3.org/2000/svg" width="169.813" height="30.59" viewBox="0 0 169.813 30.59">
  <g id="Group_187" data-name="Group 187" transform="translate(19950.717 21054.686)">
    <path id="Path_436" data-name="Path 436" d="M-54.225-9.51c1.14-1.65,6.51-9.42,7.11-9.99a2.145,2.145,0,0,1,1.47-.66h.75c.21,0,.24-.09.24-.27v-.72c0-.12-.03-.18-.24-.18-.27,0-.93.09-2.7.09-2.01,0-3.24-.09-3.54-.09-.18,0-.21.06-.21.18v.72c0,.18.03.27.21.27h.81c1.26,0,1.11.66.99,1.17-.12.54-4.32,6.78-5.43,8.52-.9-1.71-4.59-8.22-4.68-8.7-.12-.72,0-.99.9-.99h.99c.18,0,.21-.12.21-.27v-.75c0-.09-.03-.15-.21-.15-.3,0-1.38.09-4.47.09-1.83,0-3.24-.09-3.51-.09-.18,0-.21.06-.21.18v.78c0,.12.03.21.21.21h.75a2.284,2.284,0,0,1,1.56.72c.87,1.05,5.85,9.51,6.24,10.29v1.74c0,2.79-.06,5.16-.09,5.58-.03.45-.27.75-1.05.75h-1.47c-.18,0-.21.09-.21.21v.72c0,.15.06.24.18.24.33,0,1.26-.09,3.96-.09,2.52,0,3.69.09,4.05.09.21,0,.21-.09.21-.27V-.87c0-.12,0-.21-.21-.21h-1.17c-.78,0-1.23-.09-1.32-1.05-.03-.33-.12-2.28-.12-3.45ZM-32.445.45A10.193,10.193,0,0,0-23.8-3.78a10.943,10.943,0,0,0,2.25-6.57,11.557,11.557,0,0,0-4.11-8.97,10.1,10.1,0,0,0-6.72-2.37,9.818,9.818,0,0,0-8.13,3.81,11.655,11.655,0,0,0-2.79,7.47A10.492,10.492,0,0,0-38.9-1.5,13.152,13.152,0,0,0-32.445.45Zm.24-1.14c-2.55,0-8.04-2.79-8.04-10.68a10.694,10.694,0,0,1,3-7.41,5.765,5.765,0,0,1,4.74-1.77c3.33,0,8.01,3.87,8.01,10.44C-24.495-7.44-25.6-.69-32.2-.69Zm3.66-24.33c0-.15-.09-.21-.27-.21h-7.23c-.18,0-.24.06-.24.21v.99c0,.15.03.21.24.21h7.17c.18,0,.33-.06.33-.21Zm13.98,12.78c0,5.34-.06,8.76-.12,9.33-.15,1.47-.48,1.83-1.35,1.83h-1.02a.158.158,0,0,0-.18.18v.78c0,.15.03.21.15.21.3,0,2.37-.09,3-.09.81,0,2.61.09,2.91.09.21,0,.24-.06.24-.24V-.81c0-.18-.03-.27-.24-.27h-.9c-.81,0-.99-.57-1.11-1.74-.06-.6-.3-5.49-.3-8.28v-6.66h.18c.18.24,5.7,7.17,6.03,7.47.18.18,2.37,2.94,4.47,5.55L.855-.12c.09.12.36.48.72.48.12,0,.15-.3.15-.72V-11.58c0-1.95,0-4.92.12-6.93.06-1.14.36-1.65,1.17-1.65h.81c.12,0,.18-.09.18-.21v-.75c0-.12-.03-.21-.24-.21-.39,0-1.11.09-2.91.09-1.92,0-2.88-.09-3.3-.09a.159.159,0,0,0-.18.18v.78c0,.15.06.21.18.21h.96a1.6,1.6,0,0,1,1.65,1.17,35.292,35.292,0,0,1,.36,4.62c.06,1.5.09,2.97.09,5.64v3.57H.5c-.72-.96-5.79-7.17-6.12-7.59l-6.3-8.16a1.042,1.042,0,0,0-.87-.39c-.36,0-.99.06-2.01.06s-1.68-.03-2.13-.06c-.45,0-.69-.03-.84-.03s-.18.06-.18.18v.78c0,.09.03.21.18.21l1.23.03c1.08.03,1.98,1.02,1.98,2.79ZM19.035.45a10.193,10.193,0,0,0,8.64-4.23,10.943,10.943,0,0,0,2.25-6.57,11.557,11.557,0,0,0-4.11-8.97,10.1,10.1,0,0,0-6.72-2.37,9.818,9.818,0,0,0-8.13,3.81,11.655,11.655,0,0,0-2.79,7.47,10.492,10.492,0,0,0,4.41,8.91A13.152,13.152,0,0,0,19.035.45Zm.24-1.14c-2.55,0-8.04-2.79-8.04-10.68a10.694,10.694,0,0,1,3-7.41,5.765,5.765,0,0,1,4.74-1.77c3.33,0,8.01,3.87,8.01,10.44C26.985-7.44,25.875-.69,19.275-.69Zm17.73-8.82c0,2.46-.06,6.42-.15,7.11-.12.96-.27,1.32-1.2,1.32h-1.44c-.21,0-.27.06-.27.21v.78c0,.12.06.18.42.18.57,0,2.34-.09,3.84-.09,1.26,0,2.43.09,4.5.09,2.76,0,4.47-.3,5.73-1.08a5.864,5.864,0,0,0,2.31-4.5c0-3.18-1.95-4.98-4.86-5.94l-.09-.06c2.34-1.23,3.66-1.98,3.66-4.95a4.208,4.208,0,0,0-2.31-4.08c-1.05-.6-2.97-.81-5.31-.81-1.05,0-2.85.09-3.81.09-2.16,0-3.51-.09-3.99-.09-.18,0-.24.06-.24.21v.75c0,.15.06.21.24.21h.93c1.38,0,1.86.06,1.95,1.8.03.54.09,4.2.09,5.31Zm2.64-1.35h.96a11.146,11.146,0,0,1,4.02.51,4.72,4.72,0,0,1,3,4.71c0,3.57-2.31,4.77-4.83,4.77-2.49,0-3.15-1.23-3.15-3.99Zm0-3.24c0-2.49.03-5.1.06-5.7a.55.55,0,0,1,.42-.54,4.92,4.92,0,0,1,.99-.03,7.29,7.29,0,0,1,4.11,1.02A3.727,3.727,0,0,1,46.7-16.2a4.348,4.348,0,0,1-1.68,3.6,7.036,7.036,0,0,1-3.78.78,14.625,14.625,0,0,1-1.59-.06Zm18.72,3.63c0,1.59-.09,8.07-.15,8.52-.12.78-.75.87-1.35.87h-1.68c-.15,0-.24.06-.24.18v.81c0,.12.09.18.24.18.33,0,1.62-.09,4.47-.09,2.61,0,3.81.09,4.17.09q.27,0,.27-.18V-.87c0-.15-.09-.21-.24-.21h-1.23c-.96,0-1.41-.15-1.41-1.08,0-.33-.09-7.26-.09-7.56v-2.31c0-.36.09-6.99.09-7.29,0-.6.45-.84,1.05-.84h1.41c.15,0,.24-.06.24-.21v-.75a.19.19,0,0,0-.21-.21c-.42,0-1.38.09-4.05.09-2.79,0-4.32-.09-4.68-.09-.12,0-.21.06-.21.18v.81c0,.12.09.18.24.18h1.74c1.14,0,1.44.3,1.5,1.02.03.45.12,5.85.12,6.57Z" transform="translate(-19845 -21027)"/>
    <g id="Group_184" data-name="Group 184" transform="translate(-20002.232 -21101.824)">
      <path id="アートボード_10" data-name="アートボード 10" d="M330.108,164.416c.016-.008.006-.091.006-.107s0-.01,0-.011H330.1s-.006-.008,0-.012.012,0,.014-.016a.108.108,0,0,0,0-.027v-.067c0-.024.014-.055,0-.077s-.013-.013-.014-.023,0-.013,0-.017a.006.006,0,0,1-.006,0,.014.014,0,0,1-.005-.013.251.251,0,0,0,0-.064c0-.017-.022-.02-.028-.034a.113.113,0,0,1,0-.054.855.855,0,0,0,.028-.1,2.062,2.062,0,0,0,.007-.287.632.632,0,0,0-.007-.079.257.257,0,0,1,.007-.173.029.029,0,0,0,0-.027s-.008-.008-.01-.012a.022.022,0,0,1,0-.012c0-.043,0-.085,0-.128,0-.006,0-.012,0-.016l-.008-.006c-.01-.01,0-.043,0-.056a.167.167,0,0,0-.021-.066.1.1,0,0,1,0-.04.19.19,0,0,0,0-.083l-.007-.014c-.009-.027,0-.059-.009-.087s-.008-.031-.01-.046a.139.139,0,0,1,0-.037.065.065,0,0,0-.008-.041s-.007-.008-.008-.012,0-.037,0-.052,0-.042.006-.063a.59.59,0,0,0-.009-.1.258.258,0,0,0-.006-.077c-.006-.012-.014-.022-.019-.034a.259.259,0,0,1-.005-.083.024.024,0,0,0-.006-.018l-.008-.009c-.005-.009,0-.022,0-.032l-.008-.009c-.009-.011.007-.1-.021-.089-.011-.027,0-.065-.028-.082a.207.207,0,0,1-.051-.032.059.059,0,0,1-.014-.022.081.081,0,0,1,0-.023.138.138,0,0,0-.025-.082.067.067,0,0,1-.019-.041c0-.02,0-.04,0-.061,0-.042,0-.084,0-.125s-.006-.106,0-.159a.425.425,0,0,0,.011-.154c-.044-.149-.032-.376-.075-.526a.191.191,0,0,1,.006-.075c0-.027.007-.053.008-.081s-.006-.018-.013-.031,0-.019,0-.028-.01-.01-.01-.017a.04.04,0,0,1,0-.012c.009-.027-.02-.071-.039-.087a.338.338,0,0,0-.039-.025.21.21,0,0,1-.049-.06c-.012-.02-.032-.039-.033-.062v-.052a.016.016,0,0,0,0-.012c0-.006-.014,0-.02-.009s0-.021-.007-.032c-.007-.059-.087-.035-.124-.037l-.113,0c-.048,0-.1,0-.144-.007a.692.692,0,0,1-.069-.019.368.368,0,0,0-.046-.013.044.044,0,0,0-.021,0s-.013.012-.013.012a.08.08,0,0,0-.039.009.3.3,0,0,1-.054.01l-.128.012a.446.446,0,0,0-.055.006.177.177,0,0,1-.048.012.553.553,0,0,0-.176,0,.244.244,0,0,1-.039.01.312.312,0,0,0-.032,0,.2.2,0,0,0-.035.013c-.022.009-.045,0-.069,0a.34.34,0,0,0-.047-.008c-.013,0-.022.009-.034.013a.081.081,0,0,1-.036,0,.454.454,0,0,0-.18.024.117.117,0,0,1-.039.01c-.011,0-.019,0-.03,0l-.013.008a.07.07,0,0,1-.022,0,1.265,1.265,0,0,0-.145.012.541.541,0,0,0-.07.018.076.076,0,0,1-.06.012.1.1,0,0,0-.024.01.269.269,0,0,1-.073.007.026.026,0,0,0-.018.006s-.006.006-.009.007a.028.028,0,0,1-.013,0h-.044a.036.036,0,0,0-.024.006l-.008.007a.024.024,0,0,1-.012,0,.138.138,0,0,0-.068.007l-.011.007a.043.043,0,0,1-.017,0l-.175.008a.129.129,0,0,0-.05.01.084.084,0,0,1-.037.012c-.009,0-.018,0-.027,0l-.01.009c-.02.015-.054-.008-.071.011,0,0,0,.006-.007.007a.026.026,0,0,1-.013,0,.161.161,0,0,0-.04,0c-.012,0-.023.009-.035.012a.433.433,0,0,1-.107,0c-.02,0-.055-.007-.07.01a.039.039,0,0,1-.007.007c-.006,0-.011,0-.017,0s-.006.008-.01.012-.031,0-.04.007,0,.008-.007.01a.012.012,0,0,1-.009,0c-.048,0-.1.006-.143,0a.088.088,0,0,0-.044.008c-.01.006-.017.018-.03.018s-.014,0-.02,0-.005.007-.009.009-.029,0-.043,0-.021.023-.034.031-.028,0-.04.01-.018.019-.029.024-.024,0-.035.01-.018.017-.03.018a.06.06,0,0,0-.02,0s-.005,0-.008.007a.057.057,0,0,1-.011.007.36.36,0,0,1-.064.028.55.55,0,0,1-.073.01.245.245,0,0,0-.075.014.436.436,0,0,1-.072.035.091.091,0,0,0-.031.009.175.175,0,0,1-.016.013.072.072,0,0,1-.022,0c-.016,0-.024.018-.039.024a.279.279,0,0,1-.053.009c-.028.007-.046.031-.074.039s-.052,0-.074.012-.025.02-.039.014-.008.012-.016.013a.055.055,0,0,0-.023,0,.154.154,0,0,0-.014.013c-.009.007-.022.006-.033.01s-.022.018-.035.023a.126.126,0,0,1-.045.008c-.022,0-.044.007-.067.008s-.052,0-.067.021c0,0,0,.008-.009.009h-.007a.135.135,0,0,0-.061.022c-.016.01-.028.025-.043.034s-.024.01-.02.011a.058.058,0,0,0-.044.007l-.049.024-.04.021a.2.2,0,0,1-.084.015.183.183,0,0,0-.077.007c-.01,0-.018.015-.029.018s-.025,0-.032,0,0,.006,0,.008-.008.006-.012.007c-.034.009-.069.009-.1.015s-.055.027-.083.027h-.058c-.018,0-.027.009-.042.014s-.048.019-.071.024a.143.143,0,0,0-.051.016.261.261,0,0,1-.021.017.16.16,0,0,1-.033.009.271.271,0,0,0-.04.021.236.236,0,0,1-.083.012.132.132,0,0,0-.041.007s-.021.014-.024.013c-.021,0-.032.027-.053.031s-.027,0-.035.007-.005.013-.011.018a.016.016,0,0,1-.011,0,.24.24,0,0,0-.056.018.166.166,0,0,1-.051.019.215.215,0,0,0-.108.022.189.189,0,0,1-.036.024c-.008,0-.017,0-.025.006s-.021.019-.033.027a.335.335,0,0,1-.035.014.2.2,0,0,0-.03.021.537.537,0,0,1-.152.069c-.056.02-.113.042-.168.064a.225.225,0,0,1-.117.024.1.1,0,0,0-.031,0,.1.1,0,0,1-.016.008c-.013,0-.028,0-.041,0a.072.072,0,0,0-.022.012.1.1,0,0,1-.04,0,.024.024,0,0,0-.012,0,.055.055,0,0,0-.008.008c-.018.015-.048,0-.068.008a.084.084,0,0,0-.014.013.1.1,0,0,1-.039.024c-.032.009-.071,0-.1.022l-.012.011-.013.006a.121.121,0,0,0-.035.019.254.254,0,0,1-.028.02.145.145,0,0,1-.065.011.041.041,0,0,0-.025.008c-.007.006-.007.014-.017.013a.081.081,0,0,0-.052.017.234.234,0,0,1-.058.034.183.183,0,0,0-.06.016c-.016.011-.022.032-.042.038a.328.328,0,0,1-.033,0c-.019,0-.031.017-.048.024a.131.131,0,0,1-.051,0,.239.239,0,0,0-.121.031c-.021.01-.042.017-.063.027a.078.078,0,0,0-.025.017.089.089,0,0,1-.013.015c-.012.01-.03.007-.044.013s-.03.033-.051.043-.056.01-.082.023a.31.31,0,0,1-.048.03.171.171,0,0,0-.04.009c-.01,0-.017.013-.028.017a.036.036,0,0,0-.015,0s0,.006-.007.007a.025.025,0,0,1-.015,0,.184.184,0,0,0-.093.045.047.047,0,0,1-.017.013c-.007,0-.013,0-.019,0a.046.046,0,0,0-.012.013.077.077,0,0,1-.021.017.442.442,0,0,1-.056.027c-.017.007-.034.008-.047.022s-.051.007-.076.021c-.008,0-.013.013-.022.016a.057.057,0,0,0-.013,0c-.009,0-.014.012-.022.017s-.051,0-.065.019-.007.018-.016.022-.018,0-.027,0-.02.007-.017.014a.124.124,0,0,0-.035,0c-.008,0,0,.007-.01.011a.061.061,0,0,1-.031.01s-.04.017-.031.023c-.009-.007-.021,0-.029.007a.11.11,0,0,1-.021.024c-.014.009-.037,0-.05.014s-.014.025-.029.033-.03,0-.041.012a.148.148,0,0,1-.012.013.039.039,0,0,1-.012,0l-.1.009a.245.245,0,0,0-.063.013.261.261,0,0,0-.039.021.216.216,0,0,1-.038.012c-.008,0-.014.01-.013.018a.026.026,0,0,0-.03.01c-.008.008-.013.019-.023.024s-.04,0-.053.021-.009.018-.017.02-.019,0-.025,0-.007.017-.012.023-.023,0-.035,0-.018.017-.027.024-.034.011-.051.019a.158.158,0,0,0-.031.022c-.014.011-.033.007-.041.022l-.028.011c-.022.009-.046.017-.068.027s-.028.014-.042.02-.029,0-.039.012l0,0a.018.018,0,0,1-.011,0,.245.245,0,0,0-.084.014c-.025.009-.037,0-.059-.013-.051-.028-.03.045-.025.068v.006s-.009.006-.011.009,0,.006,0,.008h0c-.018,0-.112,0-.112.032a.015.015,0,0,1-.014.013.069.069,0,0,0-.021,0c-.012,0-.021.014-.033.015s-.024-.007-.033,0-.006.008-.01.01-.013,0-.019,0a.082.082,0,0,0-.009.01c-.012.012-.034,0-.049,0a.142.142,0,0,0-.056.011.167.167,0,0,1-.066.024c-.013,0-.025-.007-.039-.006a.131.131,0,0,0-.034.013c-.039.014-.08-.007-.12.008a.121.121,0,0,1-.028.011.2.2,0,0,1-.025,0c-.01,0-.015.009-.023.011a.072.072,0,0,1-.027,0h-.069c-.007,0-.016,0-.019.008s0,.006,0,.008a.008.008,0,0,1-.007,0l-.141.006a.246.246,0,0,0-.117.014l-.019.012c-.017.008-.038,0-.055.008a.132.132,0,0,0-.027.017.129.129,0,0,1-.045.015,1.667,1.667,0,0,1-.253.053.5.5,0,0,0-.174.051.706.706,0,0,1-.065.031.31.31,0,0,1-.079.006c-.039,0-.076,0-.115.009a.862.862,0,0,0-.195.06.57.57,0,0,1-.207.032c-.02,0-.032.013-.052.014h-.04a.369.369,0,0,0-.038.012.385.385,0,0,1-.062,0,.052.052,0,0,0-.022,0,.126.126,0,0,1-.05.012.379.379,0,0,0-.062.007.921.921,0,0,0-.122.028.33.33,0,0,1-.07.02l-.1.028a.077.077,0,0,1-.074,0c-.013-.008-.032-.014-.044,0s-.009.012-.014.017-.029,0-.041,0l-.011.008a.085.085,0,0,1-.014.007.29.29,0,0,1-.087.014.117.117,0,0,0-.07.014.06.06,0,0,1-.024,0c-.02,0-.03.014-.047.02a.213.213,0,0,1-.053,0c-.032,0-.063,0-.1,0l-.087,0a.481.481,0,0,0-.1.02c-.012,0-.021.01-.033.013a.186.186,0,0,1-.035,0c-.028,0-.055.009-.084.011a.253.253,0,0,1-.071-.006.162.162,0,0,0-.074.018.284.284,0,0,1-.069,0,.031.031,0,0,0-.025.01.011.011,0,0,1,0,.006h-.008a.189.189,0,0,0-.043,0,.024.024,0,0,0-.018.006s-.007.01,0,.01a.283.283,0,0,0-.053,0c-.018,0-.032.013-.05.017a.363.363,0,0,1-.077,0,.02.02,0,0,1-.011,0c-.009-.006,0-.015-.016-.013s-.054.008-.081.014a.225.225,0,0,1-.06.014.5.5,0,0,1-.07-.007.722.722,0,0,0-.169,0,.547.547,0,0,1-.153.01.094.094,0,0,1-.024-.01.157.157,0,0,0-.089-.024.027.027,0,0,0-.02.014s0,0,0,0a.005.005,0,0,1-.006,0c-.023,0-.046,0-.069,0a.011.011,0,0,0-.01,0l0,.006c0,.007-.016,0-.023,0a.092.092,0,0,0-.045-.008.209.209,0,0,1-.035.009.161.161,0,0,0-.032,0,.22.22,0,0,1-.029.009.527.527,0,0,1-.072,0h-.111a.052.052,0,0,0-.019,0c-.009,0-.016.011-.024.013a.074.074,0,0,1-.022,0c-.019,0-.024.017-.041.018s-.017,0-.023,0-.006.007-.009.011a.039.039,0,0,1-.031.011.385.385,0,0,1-.118-.011.336.336,0,0,0-.118-.023l-.141.013h-.007s0-.007,0-.01-.072,0-.084,0a.027.027,0,0,1-.019,0c-.008-.007-.007-.011-.018-.012a.109.109,0,0,0-.027,0,.038.038,0,0,1-.032-.01l-.006-.007h-.008c-.094,0-.187,0-.281,0h0s0-.007,0-.01-.009-.006-.014,0-.013,0-.014-.006v-.008s0,0-.007,0-.022,0-.031,0-.008-.011-.016-.014a.025.025,0,0,0-.016,0l-.105.008c-.016,0-.084.016-.093,0s0-.006,0-.009a.013.013,0,0,0-.014,0c-.02,0-.009-.014-.022-.016a.877.877,0,0,0-.121,0h-.126s0-.006,0-.01-.042,0-.051-.008-.015-.014-.027-.016a.231.231,0,0,0-.038,0,.043.043,0,0,1-.017,0c-.006,0,0-.011-.009-.013-.021-.011-.068,0-.091,0l-.1.006c-.066,0-.132,0-.2,0h-.007s0,0,0-.006a.024.024,0,0,0-.024-.009.071.071,0,0,1-.027,0,.066.066,0,0,1-.014-.01c-.028-.021-.056,0-.086,0h-.262s-.006,0-.007,0,0-.006,0-.008-.006-.007-.01-.008a.731.731,0,0,0-.2-.012,1.655,1.655,0,0,1-.209,0c-.04,0-.086-.029-.126-.018a.012.012,0,0,0-.009.01c0,.018-.155.02-.174.021H311s-.007,0-.011-.007-.032,0-.048-.007a.281.281,0,0,0-.043-.014.6.6,0,0,0-.11,0,.075.075,0,0,1-.031,0c-.009,0-.011-.01-.022-.01h-.079c-.013,0-.045.008-.054-.006l0-.006H310.6a1.6,1.6,0,0,0-.193,0H310.4s0,0,0-.007-.055-.023-.068-.019-.02.014-.033.014-.033-.013-.051-.014a.472.472,0,0,0-.068.008.061.061,0,0,1-.014,0c-.007,0-.011-.007-.017-.008s-.021,0-.031,0-.016-.013-.025-.017a.04.04,0,0,0-.02,0c-.042,0-.083.009-.125.016h-.01a.009.009,0,0,1,0,0c-.009-.02-.043-.011-.06-.01s-.05,0-.074,0-.068.009-.076-.006,0,0,0-.007-.028-.008-.039-.007a.023.023,0,0,0-.014,0,.011.011,0,0,0-.005.012c-.022-.007-.122-.039-.135-.008-.007.015-.044,0-.055,0a.169.169,0,0,0-.044-.018.12.12,0,0,0-.054.011.028.028,0,0,1-.013,0s-.008-.008,0-.011-.008.009-.01.011,0,0-.007,0h-.081s0,0,0,0c0-.018-.041-.014-.052-.01s-.016.014-.009.014h-.082c-.009,0-.005-.007-.01-.01s-.006-.006-.015-.007a.128.128,0,0,0-.071.006l-.012.01c-.017.012-.041,0-.06,0h-.136c-.009,0-.021.006-.03,0s-.006-.013-.011-.014-.013.007-.02.008a.083.083,0,0,1-.047-.012.376.376,0,0,0-.085-.025.64.64,0,0,0-.13.011l-.111.01c-.018,0-.036,0-.054,0a.062.062,0,0,0-.032.006c-.007,0-.01.014-.019.016h-.009l-.08-.017a.492.492,0,0,0-.1-.02s-.009,0-.013,0a.01.01,0,0,0-.007.011h-.054s0,0,0,.007c-.012.018-.047,0-.06.013,0,0,0,.006-.006.007a.012.012,0,0,1-.009,0c-.011,0-.033,0-.042,0a.011.011,0,0,0,0,.006c-.009.011-.027.009-.041.007a.051.051,0,0,0-.033.008c-.039.018-.1-.008-.141-.02-.023-.007-.06-.021-.079,0,0,0-.006.008-.009.01a.022.022,0,0,1-.014,0c-.011,0-.05-.007-.058,0s0,.006,0,.008a.025.025,0,0,1-.022,0c-.008,0-.018,0-.021.008s0,.006,0,.007-.007,0-.009,0c-.02-.008-.033.018-.053.018l-.108,0a.043.043,0,0,0-.017,0,.011.011,0,0,0-.007.013.177.177,0,0,1-.034,0c-.011,0-.024.006-.027.017h-.048s-.01,0-.011.006v.007s0,0-.007,0-.034-.007-.047,0-.011.017-.02.021a.1.1,0,0,1-.032.006c-.007,0-.016,0-.016.012v.007h0c-.012,0-.027-.006-.039,0s-.016.015-.017.015h-.111s-.01,0-.01.006,0,.006,0,.008,0,0,0,0-.027,0-.04,0-.013,0-.016,0,0,.011,0,.011c-.025,0-.052,0-.077,0a.011.011,0,0,0-.011.007.014.014,0,0,1,0,.007s0,0-.006,0c-.02,0-.082-.012-.1.006,0,0,0,.007-.007.008a.008.008,0,0,1-.009,0h-.039c-.012,0-.006.006-.009.012s0,0-.008,0a.216.216,0,0,0-.06,0c-.015,0-.011.018-.022.025s-.015,0-.023,0a.015.015,0,0,0-.009.016h-.1c-.014,0-.013,0-.019.012s-.024,0-.029.009,0,.009,0,.011h0l-.073.008-.048.006a0,0,0,0,0,0,0s0,0,0,.006,0,.007-.008.009-.008,0-.012,0-.03-.006-.029.007,0,.006,0,.007-.029,0-.029.017c0,0-.05,0-.054,0-.02,0-.027.011-.034.028s0,.006-.006.007h-.008c-.026-.009-.042-.035-.07-.038-.012,0-.025.007-.027.019h-.064s-.006,0-.007,0,0,0,0,.007-.02.007-.029.006-.013,0-.016.007,0,.006,0,.007a.011.011,0,0,1-.008,0,.157.157,0,0,0-.032,0c-.008,0-.012.007-.021.007s-.018,0-.023,0,0,.008-.009.009-.038-.009-.039.016c0,.008-.059.02-.066.021s-.053,0-.056.018-.006.022-.008.034a.029.029,0,0,1-.008.017.024.024,0,0,1-.012.006l-.056.018a.033.033,0,0,0-.02.011c0,.006-.006.012-.01.019s-.044.013-.064.015l-.144.019a.037.037,0,0,0-.023.008c-.009.007-.01.019-.017.028a.033.033,0,0,1-.03.014.106.106,0,0,0-.019,0,.011.011,0,0,0-.01.013.017.017,0,0,0-.014.015c0,.023.016.045-.018.051l-.1.017c-.021,0-.059,0-.07.021a.148.148,0,0,1-.01.023.056.056,0,0,1-.031.021h-.005c-.006,0-.009-.008-.01-.013s-.018-.013-.03-.01a.205.205,0,0,0-.048.022.2.2,0,0,1-.081.035.008.008,0,0,0-.007,0s0,0,0,0-.008.023-.018.029a.128.128,0,0,1-.042.006c-.005,0-.011,0-.012.007v.009c0,.006-.009.006-.014,0s-.013,0-.014,0v.006s0,.007-.009.008c-.023,0-.049-.008-.073,0a.008.008,0,0,0-.007,0,.078.078,0,0,0,0,.008c0,.007-.009.009-.015.011-.024.009,0,.023-.014.038a.158.158,0,0,1-.06.04c-.019.009-.052.009-.062.029a.124.124,0,0,0-.013.031.251.251,0,0,0,0,.05c0,.008,0,.019,0,.025s-.014,0-.014.012,0,.009,0,.013-.013.014-.021.02c-.027.018-.025.072-.029.1s0,.042-.011.052a.055.055,0,0,0-.012.01c0,.007,0,.016,0,.023s-.012.013-.014.022a.18.18,0,0,0,0,.024c0,.014-.02.018-.023.031a.334.334,0,0,0,.019.17.654.654,0,0,1,.024.24.1.1,0,0,0,0,.062.318.318,0,0,1,.021.032.365.365,0,0,1,.008.037c0,.012.01.022.011.033a.393.393,0,0,1,0,.051c0,.031,0,.061-.005.092a.314.314,0,0,0,0,.072c0,.02.017.039.007.059s-.008.012-.011.019a.1.1,0,0,0,0,.05.162.162,0,0,1,0,.065.559.559,0,0,0-.023.081.293.293,0,0,0,0,.087.1.1,0,0,0,.01.031c0,.009.012.015.009.027s-.019.062-.008.077l.007.008a.038.038,0,0,1,.006.014.124.124,0,0,1,.006.04.052.052,0,0,1-.01.031c0,.006-.018.009-.011.019a.1.1,0,0,0,.011.01c.009.012,0,.04,0,.054l0,.064c0,.019-.01.069.011.08a.006.006,0,0,1,.005,0,.01.01,0,0,1,0,.008v.523a.924.924,0,0,1,0,.1c0,.018,0,.034-.006.052s-.008.025,0,.034a.06.06,0,0,1,.01.013c0,.008,0,.018,0,.028-.006.031.025.028.033.05s0,.037.01.052.014.011.017.02,0,.013,0,.018a.035.035,0,0,0,.01.008c.011.008,0,.041,0,.052a.122.122,0,0,0,0,.056.239.239,0,0,1,0,.118.216.216,0,0,0,.013.092.235.235,0,0,1,0,.062V168c0,.05,0,.1.006.148,0,.027.007.052.007.079a.132.132,0,0,1,0,.042c0,.013-.015.017-.022.028a.02.02,0,0,0,0,.011c0,.03,0,.059,0,.089s0,.073,0,.111a.109.109,0,0,0,0,.038c.007.02.018.028.009.05s-.013.025-.011.037.009.013.012.021a.2.2,0,0,1,.008.038c.006.025.01.05.016.075a.073.073,0,0,0,.007.022.094.094,0,0,1,.007.016c0,.008,0,.017,0,.023s.011.009.013.014a.047.047,0,0,1,0,.018c0,.009.007.016.01.022.012.022,0,.045,0,.069s.019.04.02.063v.023a.128.128,0,0,0,.012.04c.008.025,0,.053.009.079s.025.041.024.063a.077.077,0,0,0,0,.028c0,.008.011.013.012.021s0,.016,0,.021a.018.018,0,0,0,.008.008c.031.025.024.09.028.125a.029.029,0,0,0,.006.019.058.058,0,0,0,.012.011c.016.012.011.046.013.064a.2.2,0,0,0,.022.072v.006a.113.113,0,0,0,0,.039c0,.01.014.012.018.022a.031.031,0,0,1,0,.014.763.763,0,0,0,0,.133c0,.029.03.048.031.075s-.009.053-.01.079a.064.064,0,0,0,0,.021c0,.012.017.02.023.032a.14.14,0,0,1,.01.03c.006.021,0,.041,0,.062a.351.351,0,0,1,.017.059c0,.02-.012.066,0,.082a.042.042,0,0,1,.011.013.028.028,0,0,1,0,.013v.031c0,.01-.017.027-.021.036a.205.205,0,0,0-.018.052.323.323,0,0,0,0,.056c0,.035,0,.072.007.107,0,.066.013.132.017.2s0,.137,0,.206c0,.037.006.073.009.11s.018.051.006.076a.1.1,0,0,0-.013.032.124.124,0,0,1,0,.035c0,.007-.014.008-.012.018s.007.01.01.014a.063.063,0,0,1,.007.051.1.1,0,0,0,0,.052s0,0,0,.008a.5.5,0,0,1,0,.091c0,.033-.006.067-.009.1a.259.259,0,0,0,0,.072.047.047,0,0,0,.013.027c.006.006.017.007.018.016s0,.014,0,.018.007,0,.01,0a.013.013,0,0,1,.007.013c.008.09.018.18.018.27a.156.156,0,0,1,0,.064c-.007.013-.02.017-.021.034s0,.025,0,.038a.016.016,0,0,1,0,.01s0,0-.007.007-.011.027-.019.038a.089.089,0,0,1-.033.028c-.019.011-.044.024-.048.049,0,.006.006.033,0,.034h-.009s0,0,0,0a.041.041,0,0,0,0,.03.393.393,0,0,1,.011.148.4.4,0,0,0,0,.063c0,.019.021.03.019.05a.037.037,0,0,0,0,.011s0,.008.007.011a.057.057,0,0,1,.007.03,2.1,2.1,0,0,1-.028.391,1.111,1.111,0,0,0-.011.121.324.324,0,0,0,.006.108c0,.011.013.006.018.013a.027.027,0,0,1,0,.009c0,.041,0,.083,0,.124,0,.023.008.075-.01.092s0,.06,0,.075a.286.286,0,0,1,0,.092.264.264,0,0,0-.014.051c0,.014,0,.03,0,.044a.073.073,0,0,1,0,.028c0,.008-.01.014-.013.022a.073.073,0,0,0,0,.031.037.037,0,0,1-.007.029s-.007,0-.008.007a.01.01,0,0,0,0,.01c0,.021,0,.043,0,.064a.036.036,0,0,1-.006.024l-.008.006c-.012.011,0,.053,0,.069a.2.2,0,0,1,0,.044c0,.012-.007.014-.014.024a.036.036,0,0,0,0,.019c0,.029,0,.059,0,.087,0,.013-.007.062.01.068s.008.066.009.085a.319.319,0,0,0,.014.1.038.038,0,0,1,0,.015c0,.011-.011.019-.013.029a.125.125,0,0,0,0,.029c0,.022,0,.043.006.065a.033.033,0,0,0,0,.014.052.052,0,0,0,.016.015c.017.014.011.052.01.071s0,.055,0,.083v.072a.143.143,0,0,1,0,.038c0,.01-.011.013-.013.024a.371.371,0,0,0,.006.085c0,.029,0,.059,0,.087a.687.687,0,0,1,.006.1.179.179,0,0,0,0,.06.308.308,0,0,1,.017.044.34.34,0,0,1,0,.048v.075c0,.047.01.092.01.137s0,.076,0,.115c0,.079-.008.156-.008.235s.007.136.01.2c0,.034,0,.067,0,.1v.049c0,.021,0,.025-.01.043a.035.035,0,0,0,0,.019.509.509,0,0,1-.014.158,2.334,2.334,0,0,0,0,.329.019.019,0,0,1,0,.013s-.008,0-.01.008a.019.019,0,0,0,0,.015.446.446,0,0,1-.01.133.049.049,0,0,0,0,.038c.009.015.024.01.038.018s.012.02.021.028a.04.04,0,0,0,.035.006.049.049,0,0,1,.047.006c.011.009.014.024.027.032s.034.008.048.018.015.021.028.028a.109.109,0,0,0,.032.006.138.138,0,0,1,.033.018.57.57,0,0,0,.061.023c.025.011.046.031.073.04s.036.007.053.013a.236.236,0,0,1,.046.025.584.584,0,0,0,.092.044.284.284,0,0,1,.083.039c.019.016.035.038.059.04h.014s.007,0,.01.006a.244.244,0,0,1,.043.032.073.073,0,0,0,.04.025.114.114,0,0,1,.039.007c.016.009.021.029.034.041s.043.01.065.012a.082.082,0,0,1,.054.029.068.068,0,0,0,.048.029.018.018,0,0,0,.012.014.122.122,0,0,0,.02,0,.25.25,0,0,1,.045.023.309.309,0,0,0,.062.012.365.365,0,0,1,.058.023.4.4,0,0,1,.054.024.152.152,0,0,0,.05.025.228.228,0,0,0,.048,0c.067,0,.129.046.2.048a.071.071,0,0,1,.038.006c.01.006.015.018.025.023a.085.085,0,0,0,.033.007.67.67,0,0,1,.139.04l.024.008a.734.734,0,0,0,.137.044c.051.014.1.029.152.045.024.008.049.018.073.027a.222.222,0,0,1,.043.028.054.054,0,0,0,.025.009.208.208,0,0,1,.111.039.046.046,0,0,0,.035.014s0,0,0,0a.033.033,0,0,0,.027.011c.027,0,.048.028.074.028h.013c.007,0,.009.012.015.014a.046.046,0,0,0,.012,0c.009,0,.008.01.013.013a.05.05,0,0,0,.018,0c.01,0,.016.012.022.02s.018.014.027.01a.052.052,0,0,0,.036.021c.014,0,.029,0,.044,0a.126.126,0,0,1,.077.035c.019.018.029.015.053.017a.129.129,0,0,1,.041.009c.03.011.056.03.084.043l.063.032a.217.217,0,0,1,.055.028.19.19,0,0,0,.022.02.105.105,0,0,0,.059,0c.025,0,.023.011.039.023a.077.077,0,0,0,.022.009s0,0,.009,0,0,.008.006.01a.036.036,0,0,0,.014,0,.606.606,0,0,1,.063.006c.017,0,.025.019.039.028a.139.139,0,0,0,.043.012.154.154,0,0,1,.04.021.705.705,0,0,0,.141.065l.079.03a.135.135,0,0,1,.029.013.154.154,0,0,0,.028.019c.007,0,.016,0,.021.007a.092.092,0,0,1,.01.018.039.039,0,0,0,.031.011l.043,0a.043.043,0,0,1,.031.009c.007.007.009.017.014.023s.046,0,.065.017.014.015.024.017h.011s.006.006.008.008.021,0,.032.006.014.014.023.02.027,0,.039.013.036.018.053.029a.178.178,0,0,0,.056.032.117.117,0,0,1,.044.016c.01.008.014.022.025.029s.024,0,.035.009a.108.108,0,0,1,.024.014l.045.035a.133.133,0,0,0,.021.013.122.122,0,0,1,.021.009c.008.006.011.017.017.024s.033.018.051.024.042.039.062.061.033.017.048.028.031.017.044.029a.2.2,0,0,0,.055.041.544.544,0,0,1,.053.034l.028.014a.3.3,0,0,1,.033.031c.021.019.051.023.07.042s.025.041.049.051.032.008.044.023a.14.14,0,0,0,.023.028c.014.01.035.011.046.025s.01.024.02.03.019,0,.028.006.02.034.035.046.034.008.047.02.01.019.019.022a.036.036,0,0,0,.016,0,.06.06,0,0,1,.042.038.168.168,0,0,0,.052.06c.021.018.036.039.058.058s.052.024.072.045a.325.325,0,0,1,.041.053c.008.013.014.032.032.034a.066.066,0,0,1,.04.02c.013.013.022.031.04.04s.033.007.042.022,0,.031.017.035a.044.044,0,0,0,.012,0c.019,0,.031.019.042.034a.147.147,0,0,0,.043.048l.025.012a.13.13,0,0,1,.029.027.68.68,0,0,0,.077.072.139.139,0,0,1,.03.027c.008.012.009.029.019.039s.031.011.042.023.007.011.011.017.024.009.039.014.018.018.03.027.022.006.032.012a.12.12,0,0,1,.025.028.455.455,0,0,0,.076.054c.022.017.032.044.052.063s.028.036.043.043a.171.171,0,0,0,.025,0,.054.054,0,0,1,.018.014c.028.032.054.067.085.1a.209.209,0,0,0,.027.017c.031.02.009.065.04.087.013.009.029.014.042.023a.172.172,0,0,1,.045.055.207.207,0,0,0,.031.039c.01.01.023.017.029.03s0,.01,0,.016.025.024.041.033a.321.321,0,0,1,.081.074c.023.027.049.046.073.07a.2.2,0,0,1,.035.045.1.1,0,0,0,.028.032c.011.009.014.024.024.035s.032.027.044.043a.349.349,0,0,0,.028.042c.01.01.027.006.034.019a.162.162,0,0,0,.009.02l.011.013c.035.034.072.069.1.105a.562.562,0,0,1,.04.049c.005.008.02.032.032.032h.03c.019.019.03.025.03.052a.041.041,0,0,0,0,.012.019.019,0,0,0,.009.01c.016.012.036.017.05.031s.01.034.018.053.034.024.044.044.012.049.024.07a.173.173,0,0,0,.049.053.2.2,0,0,1,.077.081c0,.012.007.024.012.037.013.029.042.04.064.06s.043.048.066.071.032.049.065.06a.072.072,0,0,1,.024.009.149.149,0,0,1,.025.032c.012.013.03.021.038.039s.009.027.03.037a.361.361,0,0,1,.132.11.067.067,0,0,0,.032.029.136.136,0,0,0,.022,0c.008,0,.016.006.017.012a.056.056,0,0,1,.055.043c0,.011,0,.02.014.025s.014,0,.022.007.021.018.031.028a.149.149,0,0,0,.031.02.116.116,0,0,1,.028.033.161.161,0,0,0,.045.045c.019.012.042.014.058.031a.321.321,0,0,1,.029.05.3.3,0,0,0,.049.051.36.36,0,0,1,.049.072c.024.043.039.093.066.133.011.016.021.034.033.049a.257.257,0,0,0,.033.024.054.054,0,0,1,.024.038c0,.012,0,.028.008.034s.013,0,.019.009,0,.013,0,.021.011.014.022.02.011.017.015.028a.2.2,0,0,0,.018.024.07.07,0,0,1,.006.031c0,.033.048.054.07.074a.718.718,0,0,1,.06.056.064.064,0,0,0,.019.015l.013.006c.019.012.012.043.035.053l.01,0c.012.008.008.028.017.04s.018.01.025.016.009.053.032.071l.022.012c.022.016.025.044.032.069s.024.033.041.053a.083.083,0,0,1,.014.028.657.657,0,0,0,.041.113c.019.031.038.056.053.089s.043.052.052.086a.2.2,0,0,0,.009.034.247.247,0,0,0,.022.025.145.145,0,0,1,.019.074.217.217,0,0,0,.034.065.545.545,0,0,1,.03.063.221.221,0,0,0,.023.052.319.319,0,0,1,.024.03.2.2,0,0,1,.01.068.225.225,0,0,0,.021.058c.011.021.034.034.042.058s0,.029.013.037l.01.007a.028.028,0,0,1,.006.014c.006.034.01.07.016.1a.118.118,0,0,0,.013.048c.008.014.019.027.025.042a.222.222,0,0,0,.011.029.227.227,0,0,0,.015.019c.012.017,0,.035.01.051l.008.01a.04.04,0,0,1,0,.012c0,.014.019.021.028.032a.1.1,0,0,1,.012.042c0,.007.01.043.021.031-.007.008,0,.019.007.025a.058.058,0,0,1,.016.04.318.318,0,0,1,.011.056.188.188,0,0,0,.008.042c0,.009.011.014.016.023s0,.019.007.029.029.04.028.064a.121.121,0,0,0,0,.02c0,.009.01.014.013.023a.072.072,0,0,1,0,.031.023.023,0,0,0,.014.024c-.008.022.017.043.017.066a.06.06,0,0,0,.01.041.093.093,0,0,1,.009.031.583.583,0,0,0,.058.145c.016.03.025.061.04.092a.739.739,0,0,1,.052.143.243.243,0,0,0,.016.058.109.109,0,0,1,.009.02c.008.025-.007.056.01.077,0,0,.005.006.007.009a.016.016,0,0,1,0,.012.058.058,0,0,0,0,.028s.013.02.016.017,0,.014,0,.021.008,0,.012.017a.416.416,0,0,1,.007.064c0,.017,0,.038.017.048a.078.078,0,0,1,.017.009.028.028,0,0,1,.006.021c0,.023,0,.048,0,.071a.061.061,0,0,0,0,.02.064.064,0,0,0,.014.021.258.258,0,0,1,.039.129.025.025,0,0,0,.008.02s.008,0,.011.008,0,.015.011.024.009.037.01.053,0,.046.006.07-.007.054.008.079a.079.079,0,0,1,.013.025c0,.009,0,.015,0,.024a.066.066,0,0,1,.012.021c0,.008-.006.013,0,.022s.01.009.012.015a.042.042,0,0,1,0,.017c0,.018.017.03.028.044a.087.087,0,0,1,.018.052.081.081,0,0,0,0,.037c.006.01.016.016.021.024a.074.074,0,0,1,.006.041.042.042,0,0,0,.014.038.028.028,0,0,0,0,.028.07.07,0,0,1,.013.025c0,.014,0,.03.011.04s.018.007.024.013.009.024.009.038,0,.03.014.034c0,.008,0,.017.008.024s.006.037.007.056a.189.189,0,0,0,.021.064c.008.017.014.033.022.051a.052.052,0,0,0,0,.025c0,.009.011.017.014.025s0,.035,0,.052a.118.118,0,0,0,.017.024c.01.012,0,.027.012.04a.131.131,0,0,1,.018.025.132.132,0,0,1,0,.037.113.113,0,0,0,.011.042l.028.07a.209.209,0,0,1,.016.053c0,.016-.006.03,0,.045a.064.064,0,0,0,0,.024s.016.02.016.018a.035.035,0,0,0,0,.028.083.083,0,0,1,.012.027.233.233,0,0,0,.014.044.151.151,0,0,1,.007.024c.006.021.016.041.022.062a.582.582,0,0,1,.01.086c0,.022.021.041.027.062a.629.629,0,0,1,.009.113.082.082,0,0,0,.005.036s.012.019.014.013a.029.029,0,0,0,.009.03c.011.009.022.012.023.029a.185.185,0,0,0,0,.024c0,.022.019.042.016.063.008,0,.012.009.013.016s0,.015,0,.022.01.013.013.021a.107.107,0,0,1,0,.038c0,.018.013.033.016.051s0,.031,0,.046a.206.206,0,0,0,.014.027c.009.019-.007.055-.011.074a.064.064,0,0,0,0,.025c0,.017.017.028.02.044s0,.029.012.04a.054.054,0,0,1,.012.01.017.017,0,0,1,0,.014c0,.038,0,.074,0,.112s.017.071-.009.094c0,0-.007.006-.008.01s.005.01.009.014c.019.022-.007.054.011.074,0,0,.006,0,.008.008a.03.03,0,0,1,0,.018c0,.044,0,.087,0,.132,0,.017-.01.1.01.1h.006a.012.012,0,0,1,0,.009.157.157,0,0,0,0,.087.042.042,0,0,0,.033.022.267.267,0,0,0,.042,0,.2.2,0,0,1,.116.03.092.092,0,0,0,.028.013c.011,0,.023,0,.034,0a.171.171,0,0,1,.051.017.357.357,0,0,0,.139.028.05.05,0,0,0,.028-.01c.006,0,.014-.006.019,0s.018.009.035.012a.061.061,0,0,1,.014.008.068.068,0,0,0,.051,0,.2.2,0,0,1,.085,0c.028.006.053.018.081.024a.3.3,0,0,0,.077,0h.188a.044.044,0,0,1,.024,0,.108.108,0,0,0,.014.01c.011,0,.024,0,.036,0s.019.008.029.012a.161.161,0,0,0,.065.006.449.449,0,0,1,.085.018.609.609,0,0,1,.077,0,.135.135,0,0,0,.06.008.447.447,0,0,1,.066,0,1.077,1.077,0,0,1,.134.013,1.088,1.088,0,0,0,.268.018.085.085,0,0,1,.041,0l.018.011a.074.074,0,0,0,.034,0,1.56,1.56,0,0,1,.216,0l.247.023.125.012.061.006a.1.1,0,0,1,.043.007.063.063,0,0,0,.024.012h.017c.014,0,.025.013.04.015s.034-.012.053-.014a.076.076,0,0,1,.031,0l.091.024a.145.145,0,0,0,.043.007c.018,0,.034-.011.051-.011s.034.01.052.011.052,0,.079,0c.052,0,.1,0,.155,0a.181.181,0,0,1,.056.02l.068.025a1.04,1.04,0,0,0,.138.041.618.618,0,0,0,.262.009c.021,0,.034-.021.053-.03a.2.2,0,0,1,.063,0h.126c.057,0,.116-.007.174-.007a1.706,1.706,0,0,1,.222.032.81.81,0,0,0,.1,0h.1a.19.19,0,0,0,.083-.006c.007,0,.013-.011.02-.008s0,0,.006,0a.088.088,0,0,0,.06.019c.042,0,.084,0,.126,0a.783.783,0,0,0,.176-.022.691.691,0,0,1,.191-.007,2.191,2.191,0,0,0,.241,0,.223.223,0,0,1,.085,0c.009,0,.018.01.027.013a.241.241,0,0,0,.069.011c.02,0,.039-.011.059-.008a.157.157,0,0,1,.024.008.047.047,0,0,0,.037-.008.036.036,0,0,0,.031.012c.036,0,.073-.007.11,0a.254.254,0,0,1,.05.013c.018,0,.038-.009.056-.009a.09.09,0,0,0,.042,0c.009,0,.018-.009.028-.012a.113.113,0,0,1,.028,0h.329c.019,0,.04-.006.059,0a.183.183,0,0,1,.046.018.1.1,0,0,0,.031,0,.577.577,0,0,1,.195.046,1.126,1.126,0,0,0,.2.027.014.014,0,0,1,.013.007s0,.008,0,.01.011,0,.017,0,.008.007.01.011.008.009.012.006a.028.028,0,0,0,0-.008.017.017,0,0,1,.014-.006.7.7,0,0,1,.193.009c.065.012.131.017.2.025a.276.276,0,0,0,.08-.016.067.067,0,0,1,.045.013.088.088,0,0,0,.048.007l.09-.008a.038.038,0,0,0,.031-.014s0-.01.006-.014a.025.025,0,0,1,.028-.008.555.555,0,0,1,.112.021.172.172,0,0,0,.1.02c.018,0,.035-.01.053-.013a.125.125,0,0,1,.05,0,.128.128,0,0,0,.04-.008.415.415,0,0,1,.128,0,.821.821,0,0,1,.127.018s.009,0,.011,0,0-.006,0-.008,0-.008.009-.009.017.007.02.011,0,0,0,0H324l.11.008.08.007s.009,0,.011,0,0,0,0-.007a.017.017,0,0,1,.015-.008h.034a.008.008,0,0,1,.007,0,.027.027,0,0,1,0,.008.017.017,0,0,0,.017.009.066.066,0,0,0,.02-.006c.017-.009.081-.027.094-.006,0,0,0,.006,0,.007a.018.018,0,0,0,.011,0h.25a.009.009,0,0,1,.009,0s0,0,0,.007a.011.011,0,0,0,.01,0c.031,0,.061,0,.092,0h.118a.07.07,0,0,1,.04.008c.007,0,.013.012.022.011s.011-.008.018-.011.036,0,.053,0a.529.529,0,0,0,.084.01.022.022,0,0,0,.012,0c.012-.011.017-.018.035-.012s.031.016.049.02a.454.454,0,0,0,.11.009c.1,0,.2.008.3.015l.1.008c.021,0,.058-.009.074.007s.007.01.012.013a.043.043,0,0,0,.023.006.791.791,0,0,1,.089.006.059.059,0,0,1,.045.021.1.1,0,0,0,.022.025.058.058,0,0,0,.041,0,.031.031,0,0,1,.031.007.011.011,0,0,0,0,.006.015.015,0,0,0,.01,0h.051s.008,0,.009,0v.008s0,0,.008,0a.261.261,0,0,1,.072,0,.184.184,0,0,0,.044.013.2.2,0,0,0,.045,0,.64.64,0,0,1,.1,0,.011.011,0,0,1,.011,0l.006.008a.019.019,0,0,0,.013,0c.03,0,.082-.013.108,0a.165.165,0,0,0,.014.009c.023.012.051-.011.073,0l.013.011c.025.019.079,0,.107,0s.018.007.033.016h.008c.12,0,.238,0,.357,0a.028.028,0,0,1,.013,0,.075.075,0,0,1,.01.008.066.066,0,0,0,.048.012c.019,0,.039-.006.058-.006h.122a.049.049,0,0,1,.022,0c.007,0,.01.01.017.013s.042-.008.06,0l.01.008a.043.043,0,0,0,.02.007l.05.009c.021,0,.033.017.056.017a.289.289,0,0,1,.131.013.14.14,0,0,0,.061.022.093.093,0,0,0,.029-.008.172.172,0,0,1,.071-.007c.023,0,.039.013.061,0s.045,0,.06-.02.074-.011.1-.013a.246.246,0,0,0,.07-.008.211.211,0,0,1,.028-.014.245.245,0,0,1,.028-.006c.039-.008.04-.066.081-.066h.014c.009,0,.009-.009.014-.012s.014,0,.022,0,.011-.016.019-.023.049.006.06-.01,0-.008.006-.009.009,0,.012-.013a.106.106,0,0,0,0-.027c0-.008,0-.038-.013-.038h-.015c-.021,0,.007-.094.01-.1s-.011-.028-.01-.043,0-.061-.011-.053a.042.042,0,0,0,.017-.038c0-.023,0-.045,0-.069s0-.073,0-.11a.055.055,0,0,1,.006-.03c0-.007.011-.011.015-.018s.006-.022,0-.035-.009-.049-.009-.073-.018-.033-.02-.054a.244.244,0,0,1,.008-.056q.008-.046.02-.093a.464.464,0,0,0,.007-.124v-.114a.042.042,0,0,1,0-.017c0-.011.018-.012.023-.022a.076.076,0,0,0,0-.035c0-.021,0-.043,0-.064a.768.768,0,0,0-.02-.112.87.87,0,0,0-.02-.1.571.571,0,0,1,0-.106.015.015,0,0,1,0-.013l.009-.006c.03-.017.011-.064.012-.091l0-.087.007-.176c0-.021.014-.038.018-.058a.516.516,0,0,0,0-.059v-.053c0-.043,0-.086,0-.129a1.321,1.321,0,0,1,.009-.162.1.1,0,0,0-.006-.053c0-.009-.011-.017-.017-.027a.085.085,0,0,1,0-.05.145.145,0,0,0-.01-.065.18.18,0,0,1-.005-.087.612.612,0,0,0-.006-.1.874.874,0,0,1-.013-.092c0-.028,0-.056,0-.084,0,0,0-.008,0-.01s-.007,0-.009,0a.009.009,0,0,1,0-.008.26.26,0,0,0,0-.051c0-.011,0-.008-.008-.016s-.008-.006-.008-.014v-.141c0-.058,0-.115,0-.172a.046.046,0,0,0,0-.018.082.082,0,0,0-.01-.017c-.011-.019,0-.035-.006-.055s0-.056,0-.085,0-.065,0-.1.007-.056.008-.084-.005-.037-.007-.055,0-.038,0-.055v-.1c0-.006,0-.012-.006-.014l-.007,0a.008.008,0,0,1,0-.01l0-.081a.054.054,0,0,0-.01-.04s-.008-.006-.009-.01a.045.045,0,0,1,0-.012c0-.012-.015-.012-.018-.024a.531.531,0,0,1,0-.111v-.121s0-.009,0-.01h.006c.019-.006-.007-.124-.009-.142a.008.008,0,0,1,0-.006l0,0c.028-.01.01-.085.01-.107s0-.045,0-.069a.023.023,0,0,0,0-.014s-.008-.007-.011-.01,0-.035.007-.048a.1.1,0,0,0,0-.035c0-.008-.009-.023-.007-.03s.012-.012.014-.023a.379.379,0,0,0-.009-.07l-.007-.09c0-.031.007-.064.008-.1s0-.084,0-.126c0-.086-.009-.174-.009-.26a1.29,1.29,0,0,0,0-.173.026.026,0,0,0-.012-.021s-.007,0-.008-.007v-.007c0-.04,0-.08,0-.12,0-.021.008-.079-.01-.094l-.006,0a.012.012,0,0,1,0-.009c-.006-.058-.014-.114-.014-.172v-.016c0-.012.016-.018.017-.031a.136.136,0,0,0-.008-.042.094.094,0,0,1,.014-.071c.011-.013,0-.049,0-.064v-.08c0-.017-.006-.041,0-.055s.019-.014.023-.027a.213.213,0,0,0,0-.065.609.609,0,0,0,0-.077.148.148,0,0,1,0-.07c0-.01.012-.017.013-.028a.228.228,0,0,0,0-.038.144.144,0,0,1,.013-.042.122.122,0,0,0,.007-.06.067.067,0,0,1,0-.021l.008-.01a.055.055,0,0,0,0-.038c0-.012,0-.03.011-.033a.01.01,0,0,0,.008,0c.014-.008,0-.077,0-.093s.007-.019.013-.031a.051.051,0,0,0,0-.029c0-.018,0-.035,0-.053s0-.055,0-.082c0-.055.013-.112.022-.166a1.858,1.858,0,0,1,.036-.19c.011-.039-.008-.086,0-.126,0-.01.009-.006.012-.01a.036.036,0,0,0,0-.019V182.6a.12.12,0,0,1,0-.049l.011-.023a.126.126,0,0,0,0-.061.079.079,0,0,1,.008-.045.073.073,0,0,0,.01-.016c0-.007,0-.012,0-.019a.041.041,0,0,1,.011-.013c.018-.019.008-.053.009-.076s0-.075.006-.113c0-.022,0-.045,0-.068a.138.138,0,0,1,0-.048c0-.012.01-.024.013-.037a.122.122,0,0,0,0-.049c0-.018.008-.021.012-.034s0-.042.006-.062c0,0,0-.009.006-.012a.163.163,0,0,0,.008-.021.64.64,0,0,0,.013-.153.039.039,0,0,1,0-.011.048.048,0,0,1,.01-.011.064.064,0,0,0,.012-.038.47.47,0,0,1,.024-.1c0-.016.017-.027.021-.042a.419.419,0,0,0,0-.064.409.409,0,0,1,.008-.082c.01-.032.027-.061.036-.092a.2.2,0,0,0,0-.068.522.522,0,0,1,.008-.06.1.1,0,0,1,0-.03c0-.01.011-.018.009-.029-.007-.035.014-.05.025-.079a.271.271,0,0,0,0-.09.158.158,0,0,0-.01-.079c-.011-.015.013-.065.034-.061,0,0,0,0,.008,0a.014.014,0,0,0,.007-.008c0-.014,0-.031.007-.046s.01-.023.014-.035c.012-.03,0-.058-.007-.089v-.009a.024.024,0,0,1,0-.008c.008-.013.017-.028.023-.041a.142.142,0,0,0,0-.053c0-.037,0-.072,0-.108,0,0,0-.008,0-.009s.007,0,.01,0a.009.009,0,0,0,0-.009c0-.019,0-.038,0-.056s0-.039.016-.048l.011-.006c.017-.013,0-.056,0-.074v-.086a.022.022,0,0,1,0-.012.026.026,0,0,1,.008-.008c.017-.017.008-.041.01-.061a.434.434,0,0,1,.009-.075c.008-.034.029-.065.035-.1a.226.226,0,0,0,.013-.052.3.3,0,0,1,0-.089.279.279,0,0,0,.014-.06c0-.014,0-.03,0-.041a.094.094,0,0,1,.017-.012.054.054,0,0,0,.013-.046c0-.034,0-.069,0-.1,0-.009,0-.02.008-.025s.015,0,.02-.01a.023.023,0,0,0,0-.014v-.053a.008.008,0,0,1,0-.006l0,0a.02.02,0,0,0,.012-.016.3.3,0,0,0,0-.043.022.022,0,0,1,0-.012.046.046,0,0,1,.01-.011.046.046,0,0,0,0-.034.184.184,0,0,1,.007-.092.6.6,0,0,0,.021-.059c0-.012,0-.027.006-.039s.01-.02.013-.031-.008-.052,0-.077a.271.271,0,0,0,.017-.041c0-.013.007-.024.01-.038a.062.062,0,0,0,0-.02c0-.024,0-.048,0-.072a.026.026,0,0,1,0-.013s.006,0,.008-.007.006-.06.008-.08.017-.039.012-.064,0-.032.01-.039.011,0,.016-.008,0-.022.007-.034.017-.03.017-.05a.087.087,0,0,1,0-.048.02.02,0,0,0,0-.011s0,0,0-.006a.057.057,0,0,1,0-.063c.006-.008.012-.018.009-.027.012,0,.016-.019.016-.031a.112.112,0,0,1,0-.054c0-.012.017-.017.014-.031a.085.085,0,0,1,0-.041c0-.012.014-.019.018-.03a.157.157,0,0,0,0-.032.014.014,0,0,1,0-.007s0,0,.007,0a.024.024,0,0,0,.008-.021c0-.017-.01-.069,0-.081l.01-.006c.01-.006,0-.046,0-.056s0-.045,0-.069c0-.045,0-.092,0-.137,0-.092.006-.183.006-.274,0-.017.01-.018.016-.031s0-.022,0-.033.013-.019.019-.03a.092.092,0,0,0,0-.06.05.05,0,0,1,.013-.055.1.1,0,0,0,.014-.009c.02-.02-.008-.068,0-.092a.445.445,0,0,0,0-.054c0-.007,0-.014.008-.014h.006s0,0,0-.008v-.084a.014.014,0,0,1,0-.007s0,0,.006-.006c.025-.019,0-.073.011-.1a.046.046,0,0,0,0-.018c0-.008-.006-.014-.007-.022s.013-.03.014-.046-.007-.025,0-.035.023-.019.023-.043-.007-.039-.008-.058v-.007s0,0,0,0c.024-.018.009-.062.009-.085v-.075a.113.113,0,0,1,.007-.046.085.085,0,0,0,.013-.037c0-.014,0-.029,0-.042s0-.051,0-.076c0-.051,0-.1,0-.153s0-.1,0-.153a.419.419,0,0,1,.024-.127l.04-.132a.624.624,0,0,0,.025-.09.7.7,0,0,0,0-.084l0-.084c0-.054,0-.11-.008-.164,0-.105-.008-.209-.014-.314a.043.043,0,0,1,0-.017s.007-.008.006-.012-.007-.012,0-.017,0,0,0,0,0-.032,0-.044a.065.065,0,0,1,.008-.048s.007,0,.009-.007,0-.018,0-.025a.046.046,0,0,1-.012-.024.046.046,0,0,1,.012-.025c.013-.018.006-.039,0-.059s0-.065,0-.1.012-.029.017-.048,0-.034,0-.052a.648.648,0,0,0,0-.065c0-.014.01-.028.006-.042a.1.1,0,0,0-.007-.016c-.007-.017.011-.028.013-.043s0-.032,0-.048v-.011a.927.927,0,0,0-.006-.11c0-.041,0-.083,0-.124a.105.105,0,0,1,.007-.045.08.08,0,0,0,.011-.031c0-.015-.008-.03,0-.045s.028-.046.034-.073a.237.237,0,0,0,0-.069.058.058,0,0,1,.007-.034c.012-.017.012-.032.023-.05s0-.04,0-.058a.5.5,0,0,1,.03-.054.074.074,0,0,0,.007-.021c0-.023-.016-.049,0-.069s.011-.011.012-.019-.006-.021,0-.028.008,0,.01-.007a.02.02,0,0,0,0-.014c0-.032,0-.063,0-.1s-.005-.049.009-.064l.008-.009c0-.007,0-.014,0-.022s.02-.021.019-.041-.024-.051-.011-.066l0,0a.021.021,0,0,0,0-.009.473.473,0,0,1,0-.105.336.336,0,0,0,.01-.045.107.107,0,0,1,0-.056.079.079,0,0,0,.017-.046c0-.017,0-.033,0-.05a.293.293,0,0,1,0-.076,1.405,1.405,0,0,0,.04-.289c0-.05.008-.1.016-.148a1.424,1.424,0,0,0,.022-.154c0-.127.006-.256.009-.383,0-.064,0-.127,0-.191a1.659,1.659,0,0,0-.012-.18v-.013s0-.007.007-.01a.058.058,0,0,0,.007-.039c0-.024,0-.049,0-.074a.043.043,0,0,1,0-.017c.006-.01.014-.014.017-.027a.257.257,0,0,0,0-.041v-.087c0-.015.009-.031.012-.046a2.22,2.22,0,0,0,.045-.224c0-.031,0-.061.007-.092a.161.161,0,0,0,0-.092l-.01-.018a.1.1,0,0,1-.008-.019.211.211,0,0,1-.008-.114.143.143,0,0,0,.011-.081c0-.033,0-.065,0-.1,0,0,0-.009,0-.011l.007,0c.011-.006.009-.038.01-.048s0-.03-.009-.039-.012-.008-.011-.014.009-.007.013-.011,0-.024-.012-.023a1.115,1.115,0,0,1,0-.149,2.346,2.346,0,0,0-.015-.541v-.09c0-.018.011-.05-.009-.06,0,0-.006,0-.007,0s.009-.027-.008-.04l-.007-.006V169.2c0-.048,0-.094,0-.142a.04.04,0,0,0,0-.02l-.008-.01c-.013-.017,0-.034-.007-.052s-.015-.027-.015-.043c0-.044,0-.087,0-.132v-.164a.015.015,0,0,0,0-.011l-.008,0s0-.01,0-.016a.308.308,0,0,0,0-.055c0-.01-.012-.014-.014-.023s0-.03,0-.044a.056.056,0,0,0-.009-.013c-.019-.027.007-.06-.012-.086a.011.011,0,0,1,0-.008v-.008l.007-.034a.039.039,0,0,0,0-.033s-.005,0-.007-.008.01-.012.013-.018a.026.026,0,0,0,0-.025.134.134,0,0,1-.014-.04.5.5,0,0,1,0-.058v-.118c0-.079,0-.157.006-.236q.012-.212.01-.425s0-.006,0-.007l0,0a.023.023,0,0,0,.012-.014.492.492,0,0,0,0-.151v-.167c0-.042,0-.083-.006-.125s0-.055,0-.083,0-.05.013-.062a.014.014,0,0,0,.006-.006v-.006a.219.219,0,0,1,0-.046.213.213,0,0,1,.013-.033c.012-.029,0-.058,0-.087a.019.019,0,0,1,.008-.017s.007,0,.008-.007a.022.022,0,0,0,0-.009c0-.06,0-.118,0-.178a.024.024,0,0,1,0-.012s.007-.006.01-.009,0-.055,0-.07,0-.053,0-.08a.022.022,0,0,1,0-.012c.007-.012.013-.017.015-.032s0-.028,0-.042c0-.034,0-.069,0-.1,0-.069,0-.137.006-.206v0s0,0,0,0c.025-.016.009-.066.009-.091V165.6s0-.008,0-.009h0a.007.007,0,0,0,.007-.007.385.385,0,0,0-.009-.112l-.01-.117c-.007-.079-.012-.157-.013-.236a.014.014,0,0,1,0-.007s.006,0,.008-.006.006-.015,0-.023a.222.222,0,0,1-.008-.081.281.281,0,0,0,.012-.073.166.166,0,0,1,0-.084.146.146,0,0,0,.008-.019.382.382,0,0,0,0-.05.215.215,0,0,1,.013-.043.213.213,0,0,0,0-.065s0-.007,0-.008h.007c.006,0,.007-.009.008-.015s0-.042,0-.064.007-.018.011-.028a.1.1,0,0,0,0-.025c0-.02.017-.029.012-.052s-.006-.019-.008-.029a.015.015,0,0,1,0-.01l.006,0Z" transform="translate(-252.631 -112.89)" fill-rule="evenodd"/>
    </g>
  </g>
</svg>
