<svg xmlns="http://www.w3.org/2000/svg" fill="none" viewBox="0 0 151 34" height="34" width="151">
<path fill="black" d="M11.787 21.932C11.787 23.111 11.8751 25.0701 11.9104 25.3995C11.9985 26.3617 12.4658 26.4571 13.2592 26.4571H14.4582C14.6698 26.4571 14.6698 26.5438 14.6698 26.6651V27.3586C14.6698 27.5407 14.6698 27.6274 14.4582 27.6274C14.0879 27.6274 12.889 27.5407 10.3147 27.5407C7.55529 27.5407 6.60316 27.6274 6.25934 27.6274C6.13592 27.6274 6.07421 27.5407 6.07421 27.3846V26.6565C6.07421 26.5351 6.10065 26.4484 6.28579 26.4484H7.79332C8.59557 26.4484 8.83361 26.145 8.86887 25.6942C8.89532 25.2695 8.95703 22.8856 8.95703 20.0769V18.3258C8.56031 17.537 3.46468 9.02428 2.57426 7.96669C2.17755 7.51592 1.47227 7.23852 0.978573 7.23852H0.211583C0.0264479 7.23852 0 7.15183 0 7.03047V6.25028C0 6.12892 0.0352639 6.06824 0.211583 6.06824C0.484879 6.06824 1.9307 6.15493 3.79968 6.15493C6.96462 6.15493 8.06662 6.06824 8.37518 6.06824C8.56031 6.06824 8.58676 6.12892 8.58676 6.21561V6.96979C8.58676 7.11716 8.56031 7.23852 8.37518 7.23852H7.36134C6.44448 7.23852 6.32105 7.50725 6.44448 8.23542C6.53264 8.72087 10.3147 15.2658 11.2316 16.9908C12.3688 15.2398 16.6622 8.9636 16.7856 8.41747C16.909 7.90601 17.0589 7.23852 15.7718 7.23852H14.9431C14.7579 7.23852 14.7315 7.15183 14.7315 6.96979V6.24161C14.7315 6.12025 14.7668 6.05957 14.9431 6.05957C15.2516 6.05957 16.5123 6.14626 18.5664 6.14626C20.3737 6.14626 21.0525 6.05957 21.3258 6.05957C21.5374 6.05957 21.5727 6.12025 21.5727 6.24161V6.96979C21.5727 7.15183 21.5462 7.23852 21.3258 7.23852H20.5589C20.1004 7.23852 19.5803 7.42056 19.0513 7.90601C18.4342 8.47815 12.9418 16.2973 11.7781 17.9617V21.9147L11.787 21.932Z"></path>
<path fill="black" d="M31.4728 26.0325C29.2952 24.7322 26.959 21.4728 26.959 17.069C26.959 15.2313 27.4527 12.3619 29.8154 9.55326C32.513 6.31982 35.5546 5.72168 38.1376 5.72168C40.0683 5.72168 42.5897 6.11177 45.0141 8.10558C47.2534 10.004 49.2193 12.9687 49.2193 17.1297C49.2193 19.3316 48.514 21.6288 46.9184 23.744C45.0494 26.1886 42.3164 28.0003 38.0759 28.0003C36.5684 28.0003 33.8972 27.5149 31.4728 26.0412V26.0325ZM46.2043 17.3725C46.2043 10.7582 41.4172 6.86595 38.0054 6.86595C37.547 6.86595 35.4576 6.50187 33.1566 8.64304C31.1025 10.5762 30.0887 13.6276 30.0887 16.0981C30.0887 24.0387 35.7044 26.8474 38.314 26.8474C45.067 26.8474 46.2043 20.0511 46.2043 17.3725Z"></path>
<path fill="black" d="M59.9042 10.0909C59.9042 8.3138 58.9873 7.3169 57.8765 7.28222L56.6158 7.25622C56.4659 7.25622 56.4307 7.13485 56.4307 7.04817V6.26798C56.4307 6.14662 56.4659 6.08594 56.6158 6.08594C56.7657 6.08594 57.0125 6.12061 57.4709 6.12061C57.9294 6.14662 58.6082 6.18129 59.6485 6.18129C60.6888 6.18129 61.3412 6.12061 61.7026 6.12061C62.0993 6.12061 62.3462 6.24197 62.593 6.51071L69.0375 14.72C69.3725 15.1448 74.5651 21.3949 75.2968 22.3571H75.4203V18.7683C75.4203 16.081 75.3938 14.5986 75.3321 13.0903C75.3057 11.9113 75.147 8.95529 74.9618 8.44383C74.715 7.68965 74.1331 7.26489 73.2692 7.26489H72.2906C72.1672 7.26489 72.1055 7.2042 72.1055 7.05684V6.27665C72.1055 6.15529 72.1672 6.09461 72.2906 6.09461C72.7226 6.09461 73.7012 6.18129 75.6671 6.18129C77.5097 6.18129 78.2502 6.09461 78.6469 6.09461C78.8585 6.09461 78.8938 6.18129 78.8938 6.30266V7.05684C78.8938 7.1782 78.8321 7.26489 78.7086 7.26489H77.8799C77.0512 7.26489 76.7427 7.77634 76.681 8.92928C76.5575 10.9491 76.5575 13.9398 76.5575 15.8989V27.1943C76.5575 27.6191 76.5311 27.9225 76.4077 27.9225C76.0374 27.9225 75.7641 27.5584 75.6671 27.437L71.9203 22.7906C69.7692 20.164 67.53 17.39 67.3448 17.2079C67.0098 16.9045 61.3588 9.93485 61.1737 9.69213H60.9885V16.3931C60.9885 19.2017 61.2354 24.1256 61.2971 24.7237C61.4205 25.9027 61.6056 26.4748 62.4343 26.4748H63.3512C63.5628 26.4748 63.598 26.5615 63.598 26.7435V27.411C63.598 27.5931 63.5716 27.6537 63.3512 27.6537C63.0426 27.6537 61.2001 27.5671 60.3714 27.5671C59.7278 27.5671 57.612 27.6537 57.3034 27.6537C57.18 27.6537 57.1536 27.5931 57.1536 27.4457V26.6568C57.1536 26.5701 57.1888 26.4748 57.3387 26.4748H58.379C59.2694 26.4748 59.6044 26.1107 59.7631 24.637C59.8248 24.0649 59.8865 20.6234 59.8865 15.2488V10.1169L59.9042 10.0909Z"></path>
<path fill="black" d="M90.6105 26.0325C88.4329 24.7322 86.0967 21.4728 86.0967 17.069C86.0967 15.2313 86.5904 12.3619 88.9531 9.55326C91.6507 6.31982 94.6922 5.72168 97.2753 5.72168C99.206 5.72168 101.727 6.11177 104.152 8.10558C106.391 10.004 108.357 12.9687 108.357 17.1297C108.357 19.3316 107.652 21.6288 106.056 23.744C104.187 26.1886 101.454 28.0003 97.2136 28.0003C95.7061 28.0003 93.0348 27.5149 90.6105 26.0412V26.0325ZM105.342 17.3725C105.342 10.7582 100.555 6.86595 97.1431 6.86595C96.6847 6.86595 94.5953 6.50187 92.2943 8.64304C90.2402 10.5762 89.2263 13.6276 89.2263 16.0981C89.2263 24.0387 94.8421 26.8474 97.4517 26.8474C104.205 26.8474 105.342 20.0511 105.342 17.3725Z"></path>
<path fill="black" d="M118.822 14.4079C118.822 13.2897 118.76 9.60544 118.733 9.06798C118.645 7.3169 118.152 7.25622 116.741 7.25622H115.789C115.604 7.25622 115.542 7.19554 115.542 7.04817V6.29399C115.542 6.14662 115.604 6.08594 115.789 6.08594C116.283 6.08594 117.658 6.17262 119.871 6.17262C120.849 6.17262 122.692 6.08594 123.767 6.08594C126.165 6.08594 128.131 6.29399 129.198 6.9008C130.952 7.83702 131.561 9.22402 131.561 11.0098C131.561 14.0005 130.212 14.7547 127.814 15.9943L127.902 16.055C130.882 17.0172 132.874 18.829 132.874 22.0364C132.874 23.5794 131.922 25.6859 130.512 26.5615C129.224 27.3417 127.47 27.6451 124.649 27.6451C122.533 27.6451 121.334 27.5584 120.047 27.5584C118.513 27.5584 116.697 27.6451 116.115 27.6451C115.745 27.6451 115.683 27.5844 115.683 27.463V26.6742C115.683 26.5268 115.745 26.4661 115.956 26.4661H117.429C118.381 26.4661 118.531 26.102 118.654 25.1398C118.742 24.4463 118.804 20.4587 118.804 17.9881V14.4253L118.822 14.4079ZM121.528 15.5869C122.11 15.6475 122.63 15.6475 123.159 15.6475C124.905 15.6475 126.289 15.3788 127.029 14.8587C128.29 13.9225 128.748 12.5615 128.748 11.2352C128.748 10.0909 128.378 8.87727 127.241 8.06241C126.139 7.30823 124.605 7.0395 123.036 7.0395C122.604 7.0395 122.269 7.01349 122.022 7.07417C121.775 7.13485 121.59 7.3429 121.59 7.6203C121.554 8.22711 121.528 10.8537 121.528 13.359V15.5955V15.5869ZM121.528 22.6519C121.528 25.4259 122.207 26.6655 124.755 26.6655C127.302 26.6655 129.7 25.4606 129.7 21.863C129.7 19.4184 128.44 17.8147 126.632 17.1212C125.372 16.6358 123.935 16.6098 122.515 16.6098H121.537V22.6432L121.528 22.6519Z"></path>
<path fill="black" d="M145.137 14.8932C145.137 14.1651 145.049 8.73845 145.014 8.27901C144.952 7.55083 144.644 7.2561 143.48 7.2561H141.699C141.549 7.2561 141.452 7.19541 141.452 7.07405V6.25919C141.452 6.13783 141.54 6.07715 141.664 6.07715C142.034 6.07715 143.594 6.16384 146.451 6.16384C149.307 6.16384 150.162 6.07715 150.594 6.07715C150.744 6.07715 150.806 6.16384 150.806 6.2852V7.03938C150.806 7.18675 150.718 7.24743 150.559 7.24743H149.113C148.496 7.24743 148.038 7.49015 148.038 8.08829C148.038 8.3917 147.95 15.058 147.95 15.422V17.7453C147.95 18.0487 148.038 25.0183 148.038 25.3564C148.038 26.2926 148.496 26.44 149.484 26.44H150.744C150.894 26.44 150.991 26.5007 150.991 26.648V27.4369C150.991 27.5583 150.903 27.6189 150.718 27.6189C150.347 27.6189 149.122 27.5323 146.451 27.5323C143.533 27.5323 142.21 27.6189 141.875 27.6189C141.725 27.6189 141.628 27.5583 141.628 27.4369V26.622C141.628 26.5007 141.717 26.44 141.875 26.44H143.594C144.212 26.44 144.855 26.3533 144.979 25.5645C145.04 25.1137 145.128 18.5861 145.128 16.9911V14.8759L145.137 14.8932Z"></path>
<path fill="black" d="M35.7223 1.17895H34.7437C34.6203 1.17895 34.5586 1.11827 34.5586 0.970898V0.182043C34.5586 0.0606811 34.6203 0 34.7437 0C35.1757 0 36.1367 0.0866873 38.1026 0.0866873C39.9452 0.0866873 41.0031 0 41.3998 0C41.6114 0 41.6466 0.0866873 41.6466 0.20805V0.962229C41.6466 1.08359 41.5849 1.17028 41.4615 1.17028H40.6328C40.6328 1.17028 38.7814 1.12693 38.1202 1.12693C37.415 1.12693 36.5069 1.15294 35.7311 1.17028L35.7223 1.17895Z"></path>
</svg>
